<svg xmlns="http://www.w3.org/2000/svg" xmlns:dc="http://purl.org/dc/elements/1.1/" xmlns:ns2="http://creativecommons.org/ns#" xmlns:rdf="http://www.w3.org/1999/02/22-rdf-syntax-ns#" xmlns:xlink="http://www.w3.org/1999/xlink" width="606.1" height="150.70000000000002" viewBox="0.0 0.0 606.1 150.70000000000002">
<g id="graph0" class="graph" transform="scale(1.1 1.1) rotate(0) translate(4 133)">
<title>G</title>
<polygon fill="white" stroke="none" points="-4,4 -4,-133 547,-133 547,4 -4,4" />
<g id="clust1" class="cluster">
<title>cluster_legend</title>
</g>
<g id="clust2" class="cluster">
<title>cluster_instance</title>
</g>

<g id="node1" class="node">
<title>node34</title>
<polygon fill="none" stroke="#d67c03" stroke-width="0.5" stroke-dasharray="5,2" points="268,-38.5 195,-38.5 195,-25.5 268,-25.5 268,-38.5" />
<text text-anchor="start" x="195" y="-28.9" font-family="Helvetica,sans-Serif" font-size="12.00" fill="#444443">mfccs@19.46</text>
</g>

<g id="node4" class="node">
<title>leaf40</title>
<polygon fill="none" stroke="#d67c03" stroke-width="0.5" stroke-dasharray="5,2" points="334,-64 285,-64 285,0 334,0 334,-64" />
<svg width="41px" height="56px" viewBox="0 0 54.824 74.766929" version="1.1" preserveAspectRatio="xMinYMin meet" x="289.5" y="-60">
 <metadata>
  <rdf:RDF>
   <ns2:Work>
    <dc:type rdf:resource="http://purl.org/dc/dcmitype/StillImage" />
    <dc:date>2022-12-22T13:39:04.918969</dc:date>
    <dc:format>image/svg+xml</dc:format>
    <dc:creator>
     <ns2:Agent>
      <dc:title>Matplotlib v3.6.2, https://matplotlib.org/</dc:title>
     </ns2:Agent>
    </dc:creator>
   </ns2:Work>
  </rdf:RDF>
 </metadata>
 <defs>
  <style type="text/css">*{stroke-linejoin: round; stroke-linecap: butt}</style>
 </defs>
 <g id="figure_1">
  <g id="patch_1">
   <path d="M 0 74.766929  L 54.824 74.766929  L 54.824 0  L 0 0  z " style="fill: #ffffff" />
  </g>
  <g id="axes_1">
   <g id="patch_2">
    <path d="M 54.824 27.412  C 54.824 23.812289 54.114935 20.247581 52.737386 16.921882  C 51.359836 13.596183 49.340591 10.574169 46.795211 8.028789  C 44.249831 5.483409 41.227817 3.464164 37.902118 2.086614  C 34.576419 0.709065 31.011711 0 27.412 0  C 23.812289 0 20.247581 0.709065 16.921882 2.086614  C 13.596183 3.464164 10.574169 5.483409 8.028789 8.028789  C 5.483409 10.574169 3.464164 13.596183 2.086614 16.921882  C 0.709065 20.247581 0 23.812289 0 27.412  C 0 31.011711 0.709065 34.576419 2.086614 37.902118  C 3.464164 41.227817 5.483409 44.249831 8.028789 46.795211  C 10.574169 49.340591 13.596183 51.359836 16.921882 52.737386  C 20.247581 54.114935 23.812289 54.824 27.412 54.824  C 31.011711 54.824 34.576419 54.114935 37.902118 52.737386  C 41.227817 51.359836 44.249831 49.340591 46.795211 46.795211  C 49.340591 44.249831 51.359836 41.227817 52.737386 37.902118  C 54.114935 34.576419 54.824 31.011711 54.824 27.412  M 27.412 27.412  M 54.824 27.412  z " style="fill: #d9e6f5; stroke: #444443; stroke-width: 0.5; stroke-linejoin: miter" />
   </g>
   <g id="text_1">
    
    <g style="fill: #444443" transform="translate(17.276453 63.458991) scale(0.09 -0.09)">
     <defs>
      <path id="ArialMT-6e" d="M 422 0  L 422 3319  L 928 3319  L 928 2847  Q 1294 3394 1984 3394  Q 2284 3394 2536 3286  Q 2788 3178 2913 3003  Q 3038 2828 3088 2588  Q 3119 2431 3119 2041  L 3119 0  L 2556 0  L 2556 2019  Q 2556 2363 2490 2533  Q 2425 2703 2258 2804  Q 2091 2906 1866 2906  Q 1506 2906 1245 2678  Q 984 2450 984 1813  L 984 0  L 422 0  z " transform="scale(0.015625)" />
      <path id="ArialMT-3d" d="M 3381 2694  L 356 2694  L 356 3219  L 3381 3219  L 3381 2694  z M 3381 1303  L 356 1303  L 356 1828  L 3381 1828  L 3381 1303  z " transform="scale(0.015625)" />
      <path id="ArialMT-33" d="M 269 1209  L 831 1284  Q 928 806 1161 595  Q 1394 384 1728 384  Q 2125 384 2398 659  Q 2672 934 2672 1341  Q 2672 1728 2419 1979  Q 2166 2231 1775 2231  Q 1616 2231 1378 2169  L 1441 2663  Q 1497 2656 1531 2656  Q 1891 2656 2178 2843  Q 2466 3031 2466 3422  Q 2466 3731 2256 3934  Q 2047 4138 1716 4138  Q 1388 4138 1169 3931  Q 950 3725 888 3313  L 325 3413  Q 428 3978 793 4289  Q 1159 4600 1703 4600  Q 2078 4600 2393 4439  Q 2709 4278 2876 4000  Q 3044 3722 3044 3409  Q 3044 3113 2884 2869  Q 2725 2625 2413 2481  Q 2819 2388 3044 2092  Q 3269 1797 3269 1353  Q 3269 753 2831 336  Q 2394 -81 1725 -81  Q 1122 -81 723 278  Q 325 638 269 1209  z " transform="scale(0.015625)" />
      <path id="ArialMT-37" d="M 303 3981  L 303 4522  L 3269 4522  L 3269 4084  Q 2831 3619 2401 2847  Q 1972 2075 1738 1259  Q 1569 684 1522 0  L 944 0  Q 953 541 1156 1306  Q 1359 2072 1739 2783  Q 2119 3494 2547 3981  L 303 3981  z " transform="scale(0.015625)" />
     </defs>
     <use xlink:href="#ArialMT-6e" />
     <use xlink:href="#ArialMT-3d" x="55.615234" />
     <use xlink:href="#ArialMT-33" x="114.013672" />
     <use xlink:href="#ArialMT-37" x="169.628906" />
    </g>
    
    <g style="fill: #444443" transform="translate(11.152938 72.978179) scale(0.09 -0.09)">
     <defs>
      <path id="ArialMT-42" d="M 469 0  L 469 4581  L 2188 4581  Q 2713 4581 3030 4442  Q 3347 4303 3526 4014  Q 3706 3725 3706 3409  Q 3706 3116 3547 2856  Q 3388 2597 3066 2438  Q 3481 2316 3704 2022  Q 3928 1728 3928 1328  Q 3928 1006 3792 729  Q 3656 453 3456 303  Q 3256 153 2954 76  Q 2653 0 2216 0  L 469 0  z M 1075 2656  L 2066 2656  Q 2469 2656 2644 2709  Q 2875 2778 2992 2937  Q 3109 3097 3109 3338  Q 3109 3566 3000 3739  Q 2891 3913 2687 3977  Q 2484 4041 1991 4041  L 1075 4041  L 1075 2656  z M 1075 541  L 2216 541  Q 2509 541 2628 563  Q 2838 600 2978 687  Q 3119 775 3209 942  Q 3300 1109 3300 1328  Q 3300 1584 3169 1773  Q 3038 1963 2805 2039  Q 2572 2116 2134 2116  L 1075 2116  L 1075 541  z " transform="scale(0.015625)" />
      <path id="ArialMT-61" d="M 2588 409  Q 2275 144 1986 34  Q 1697 -75 1366 -75  Q 819 -75 525 192  Q 231 459 231 875  Q 231 1119 342 1320  Q 453 1522 633 1644  Q 813 1766 1038 1828  Q 1203 1872 1538 1913  Q 2219 1994 2541 2106  Q 2544 2222 2544 2253  Q 2544 2597 2384 2738  Q 2169 2928 1744 2928  Q 1347 2928 1158 2789  Q 969 2650 878 2297  L 328 2372  Q 403 2725 575 2942  Q 747 3159 1072 3276  Q 1397 3394 1825 3394  Q 2250 3394 2515 3294  Q 2781 3194 2906 3042  Q 3031 2891 3081 2659  Q 3109 2516 3109 2141  L 3109 1391  Q 3109 606 3145 398  Q 3181 191 3288 0  L 2700 0  Q 2613 175 2588 409  z M 2541 1666  Q 2234 1541 1622 1453  Q 1275 1403 1131 1340  Q 988 1278 909 1158  Q 831 1038 831 891  Q 831 666 1001 516  Q 1172 366 1500 366  Q 1825 366 2078 508  Q 2331 650 2450 897  Q 2541 1088 2541 1459  L 2541 1666  z " transform="scale(0.015625)" />
      <path id="ArialMT-73" d="M 197 991  L 753 1078  Q 800 744 1014 566  Q 1228 388 1613 388  Q 2000 388 2187 545  Q 2375 703 2375 916  Q 2375 1106 2209 1216  Q 2094 1291 1634 1406  Q 1016 1563 777 1677  Q 538 1791 414 1992  Q 291 2194 291 2438  Q 291 2659 392 2848  Q 494 3038 669 3163  Q 800 3259 1026 3326  Q 1253 3394 1513 3394  Q 1903 3394 2198 3281  Q 2494 3169 2634 2976  Q 2775 2784 2828 2463  L 2278 2388  Q 2241 2644 2061 2787  Q 1881 2931 1553 2931  Q 1166 2931 1000 2803  Q 834 2675 834 2503  Q 834 2394 903 2306  Q 972 2216 1119 2156  Q 1203 2125 1616 2013  Q 2213 1853 2448 1751  Q 2684 1650 2818 1456  Q 2953 1263 2953 975  Q 2953 694 2789 445  Q 2625 197 2315 61  Q 2006 -75 1616 -75  Q 969 -75 630 194  Q 291 463 197 991  z " transform="scale(0.015625)" />
      <path id="ArialMT-74" d="M 1650 503  L 1731 6  Q 1494 -44 1306 -44  Q 1000 -44 831 53  Q 663 150 594 308  Q 525 466 525 972  L 525 2881  L 113 2881  L 113 3319  L 525 3319  L 525 4141  L 1084 4478  L 1084 3319  L 1650 3319  L 1650 2881  L 1084 2881  L 1084 941  Q 1084 700 1114 631  Q 1144 563 1211 522  Q 1278 481 1403 481  Q 1497 481 1650 503  z " transform="scale(0.015625)" />
     </defs>
     <use xlink:href="#ArialMT-42" />
     <use xlink:href="#ArialMT-61" x="66.699219" />
     <use xlink:href="#ArialMT-73" x="122.314453" />
     <use xlink:href="#ArialMT-73" x="172.314453" />
     <use xlink:href="#ArialMT-61" x="222.314453" />
     <use xlink:href="#ArialMT-6e" x="277.929688" />
     <use xlink:href="#ArialMT-74" x="333.544922" />
    </g>
   </g>
  </g>
 </g>
</svg></g>

<g id="edge1" class="edge">
<title>node34-&gt;leaf40</title>
<path fill="none" stroke="#d67c03" stroke-width="1.2" d="M268.27,-32C271.83,-32 275.4,-32 278.88,-32" />
<polygon fill="#d67c03" stroke="#d67c03" stroke-width="1.2" points="278.81,-33.4 282.81,-32 278.81,-30.6 278.81,-33.4" />
</g>

<g id="node2" class="node">
<title>node18</title>
<polygon fill="none" stroke="#d67c03" stroke-width="0.5" stroke-dasharray="5,2" points="178,-38.5 105,-38.5 105,-25.5 178,-25.5 178,-38.5" />
<text text-anchor="start" x="105" y="-28.9" font-family="Helvetica,sans-Serif" font-size="12.00" fill="#444443">tonnetz@6.26</text>
</g>

<g id="edge2" class="edge">
<title>node18-&gt;node34</title>
<path fill="none" stroke="#d67c03" stroke-width="1.2" d="M178.29,-32C181.85,-32 185.49,-32 189.1,-32" />
<polygon fill="#d67c03" stroke="#d67c03" stroke-width="1.2" points="188.92,-33.4 192.92,-32 188.92,-30.6 188.92,-33.4" />
</g>

<g id="node3" class="node">
<title>node0</title>
<polygon fill="none" stroke="#d67c03" stroke-width="0.5" stroke-dasharray="5,2" points="88,-38.5 0,-38.5 0,-25.5 88,-25.5 88,-38.5" />
<text text-anchor="start" x="0" y="-28.9" font-family="Helvetica,sans-Serif" font-size="12.00" fill="#444443">contrast@-12.89</text>
</g>

<g id="edge3" class="edge">
<title>node0-&gt;node18</title>
<path fill="none" stroke="#d67c03" stroke-width="1.2" d="M88.28,-32C91.76,-32 95.27,-32 98.73,-32" />
<polygon fill="#d67c03" stroke="#d67c03" stroke-width="1.2" points="98.7,-33.4 102.7,-32 98.7,-30.6 98.7,-33.4" />
</g>

<g id="node6" class="node">
<title>X_y</title>
<polygon fill="none" stroke="black" stroke-width="0.3" points="535,-48 405,-48 405,-16 535,-16 535,-48" />
<polygon fill="white" stroke="none" points="407,-32 407,-46 449,-46 449,-32 407,-32" />
<text text-anchor="start" x="408" y="-36.2" font-family="Helvetica,sans-Serif" font-size="11.00" fill="#d67c03">contrast</text>
<polygon fill="white" stroke="none" points="449,-32 449,-46 488,-46 488,-32 449,-32" />
<text text-anchor="start" x="450" y="-36.2" font-family="Helvetica,sans-Serif" font-size="11.00" fill="#d67c03">tonnetz</text>
<polygon fill="white" stroke="none" points="488,-32 488,-46 521,-46 521,-32 488,-32" />
<text text-anchor="start" x="489" y="-36.2" font-family="Helvetica,sans-Serif" font-size="11.00" fill="#d67c03">mfccs</text>
<polygon fill="white" stroke="none" points="521,-32 521,-46 533,-46 533,-32 521,-32" />
<text text-anchor="start" x="522" y="-36.2" font-family="Helvetica,sans-Serif" font-size="11.00" fill="#444443">...</text>
<polygon fill="white" stroke="none" points="407,-18 407,-32 449,-32 449,-18 407,-18" />
<text text-anchor="start" x="423" y="-22.2" font-family="Helvetica,sans-Serif" font-size="11.00" fill="#d67c03">-6.98</text>
<polygon fill="white" stroke="none" points="449,-18 449,-32 488,-32 488,-18 449,-18" />
<text text-anchor="start" x="459" y="-22.2" font-family="Helvetica,sans-Serif" font-size="11.00" fill="#d67c03">48.09</text>
<polygon fill="white" stroke="none" points="488,-18 488,-32 521,-32 521,-18 488,-18" />
<text text-anchor="start" x="492" y="-22.2" font-family="Helvetica,sans-Serif" font-size="11.00" fill="#d67c03">21.17</text>
<polygon fill="white" stroke="none" points="521,-18 521,-32 533,-32 533,-18 521,-18" />
<text text-anchor="start" x="522" y="-22.2" font-family="Helvetica,sans-Serif" font-size="11.00" fill="#444443">...</text>
</g>

<g id="edge4" class="edge">
<title>leaf40-&gt;X_y</title>
<path fill="none" stroke="#d67c03" stroke-width="1.2" d="M339.74,-32C358.14,-32 382.63,-32 405.34,-32" />
<polygon fill="#d67c03" stroke="#d67c03" stroke-width="1.2" points="340.05,-30.6 336.05,-32 340.05,-33.4 340.05,-30.6" />
<text text-anchor="start" x="342" y="-47.2" font-family="Helvetica,sans-Serif" font-size="11.00" fill="#444443"> &#160;Prediction</text>
<text text-anchor="start" x="347.5" y="-35.2" font-family="Helvetica,sans-Serif" font-size="11.00" fill="#444443"> Bassant</text>
</g>

<g id="node5" class="node">
<title>legend</title>
<polygon fill="none" stroke="black" stroke-width="0" points="74.5,-121 13.5,-121 13.5,-45 74.5,-45 74.5,-121" />
<svg width="57px" height="72px" viewBox="0 0 75.63125 96.75625" version="1.1" preserveAspectRatio="xMinYMin meet" x="16" y="-119">
 <metadata>
  <rdf:RDF>
   <ns2:Work>
    <dc:type rdf:resource="http://purl.org/dc/dcmitype/StillImage" />
    <dc:date>2022-12-22T13:39:04.814146</dc:date>
    <dc:format>image/svg+xml</dc:format>
    <dc:creator>
     <ns2:Agent>
      <dc:title>Matplotlib v3.6.2, https://matplotlib.org/</dc:title>
     </ns2:Agent>
    </dc:creator>
   </ns2:Work>
  </rdf:RDF>
 </metadata>
 <defs>
  <style type="text/css">*{stroke-linejoin: round; stroke-linecap: butt}</style>
 </defs>
 <g id="figure_1">
  <g id="patch_1">
   <path d="M 0 96.75625  L 75.63125 96.75625  L 75.63125 0  L 0 0  z " style="fill: #ffffff" />
  </g>
  <g id="axes_1">
   <g id="legend_1">
    <g id="patch_2">
     <path d="M 2 96.75625  L 73.63125 96.75625  Q 75.63125 96.75625 75.63125 94.75625  L 75.63125 2  Q 75.63125 0 73.63125 0  L 2 0  Q -0 0 -0 2  L -0 94.75625  Q -0 96.75625 2 96.75625  z " style="fill: #ffffff; opacity: 0.8; stroke: #444443; stroke-width: 0.5; stroke-linejoin: miter" />
    </g>
    <g id="text_1">
     
     <g style="fill: #444443" transform="translate(14.802344 15.598438) scale(0.1 -0.1)">
      <defs>
       <path id="DejaVuSans-Bold-4d" d="M 588 4666  L 2119 4666  L 3181 2169  L 4250 4666  L 5778 4666  L 5778 0  L 4641 0  L 4641 3413  L 3566 897  L 2803 897  L 1728 3413  L 1728 0  L 588 0  L 588 4666  z " transform="scale(0.015625)" />
       <path id="DejaVuSans-Bold-65" d="M 4031 1759  L 4031 1441  L 1416 1441  Q 1456 1047 1700 850  Q 1944 653 2381 653  Q 2734 653 3104 758  Q 3475 863 3866 1075  L 3866 213  Q 3469 63 3072 -14  Q 2675 -91 2278 -91  Q 1328 -91 801 392  Q 275 875 275 1747  Q 275 2603 792 3093  Q 1309 3584 2216 3584  Q 3041 3584 3536 3087  Q 4031 2591 4031 1759  z M 2881 2131  Q 2881 2450 2695 2645  Q 2509 2841 2209 2841  Q 1884 2841 1681 2658  Q 1478 2475 1428 2131  L 2881 2131  z " transform="scale(0.015625)" />
       <path id="DejaVuSans-Bold-6d" d="M 3781 2919  Q 3994 3244 4286 3414  Q 4578 3584 4928 3584  Q 5531 3584 5847 3212  Q 6163 2841 6163 2131  L 6163 0  L 5038 0  L 5038 1825  Q 5041 1866 5042 1909  Q 5044 1953 5044 2034  Q 5044 2406 4934 2573  Q 4825 2741 4581 2741  Q 4263 2741 4089 2478  Q 3916 2216 3909 1719  L 3909 0  L 2784 0  L 2784 1825  Q 2784 2406 2684 2573  Q 2584 2741 2328 2741  Q 2006 2741 1831 2477  Q 1656 2213 1656 1722  L 1656 0  L 531 0  L 531 3500  L 1656 3500  L 1656 2988  Q 1863 3284 2130 3434  Q 2397 3584 2719 3584  Q 3081 3584 3359 3409  Q 3638 3234 3781 2919  z " transform="scale(0.015625)" />
       <path id="DejaVuSans-Bold-62" d="M 2400 722  Q 2759 722 2948 984  Q 3138 1247 3138 1747  Q 3138 2247 2948 2509  Q 2759 2772 2400 2772  Q 2041 2772 1848 2508  Q 1656 2244 1656 1747  Q 1656 1250 1848 986  Q 2041 722 2400 722  z M 1656 2988  Q 1888 3294 2169 3439  Q 2450 3584 2816 3584  Q 3463 3584 3878 3070  Q 4294 2556 4294 1747  Q 4294 938 3878 423  Q 3463 -91 2816 -91  Q 2450 -91 2169 54  Q 1888 200 1656 506  L 1656 0  L 538 0  L 538 4863  L 1656 4863  L 1656 2988  z " transform="scale(0.015625)" />
       <path id="DejaVuSans-Bold-72" d="M 3138 2547  Q 2991 2616 2845 2648  Q 2700 2681 2553 2681  Q 2122 2681 1889 2404  Q 1656 2128 1656 1613  L 1656 0  L 538 0  L 538 3500  L 1656 3500  L 1656 2925  Q 1872 3269 2151 3426  Q 2431 3584 2822 3584  Q 2878 3584 2943 3579  Q 3009 3575 3134 3559  L 3138 2547  z " transform="scale(0.015625)" />
      </defs>
      <use xlink:href="#DejaVuSans-Bold-4d" />
      <use xlink:href="#DejaVuSans-Bold-65" x="99.511719" />
      <use xlink:href="#DejaVuSans-Bold-6d" x="167.333984" />
      <use xlink:href="#DejaVuSans-Bold-62" x="271.533203" />
      <use xlink:href="#DejaVuSans-Bold-65" x="343.115234" />
      <use xlink:href="#DejaVuSans-Bold-72" x="410.9375" />
     </g>
    </g>
    <g id="patch_3">
     <path d="M 8 29.835938  L 28 29.835938  L 28 22.835938  L 8 22.835938  z " style="fill: #fefebb; stroke: #444443; stroke-width: 0.4; stroke-linejoin: miter" />
    </g>
    <g id="text_2">
     
     <g style="fill: #444443" transform="translate(31.5 29.835938) scale(0.1 -0.1)">
      <defs>
       <path id="ArialMT-6f" d="M 213 1659  Q 213 2581 725 3025  Q 1153 3394 1769 3394  Q 2453 3394 2887 2945  Q 3322 2497 3322 1706  Q 3322 1066 3130 698  Q 2938 331 2570 128  Q 2203 -75 1769 -75  Q 1072 -75 642 372  Q 213 819 213 1659  z M 791 1659  Q 791 1022 1069 705  Q 1347 388 1769 388  Q 2188 388 2466 706  Q 2744 1025 2744 1678  Q 2744 2294 2464 2611  Q 2184 2928 1769 2928  Q 1347 2928 1069 2612  Q 791 2297 791 1659  z " transform="scale(0.015625)" />
       <path id="ArialMT-74" d="M 1650 503  L 1731 6  Q 1494 -44 1306 -44  Q 1000 -44 831 53  Q 663 150 594 308  Q 525 466 525 972  L 525 2881  L 113 2881  L 113 3319  L 525 3319  L 525 4141  L 1084 4478  L 1084 3319  L 1650 3319  L 1650 2881  L 1084 2881  L 1084 941  Q 1084 700 1114 631  Q 1144 563 1211 522  Q 1278 481 1403 481  Q 1497 481 1650 503  z " transform="scale(0.015625)" />
       <path id="ArialMT-68" d="M 422 0  L 422 4581  L 984 4581  L 984 2938  Q 1378 3394 1978 3394  Q 2347 3394 2619 3248  Q 2891 3103 3008 2847  Q 3125 2591 3125 2103  L 3125 0  L 2563 0  L 2563 2103  Q 2563 2525 2380 2717  Q 2197 2909 1863 2909  Q 1613 2909 1392 2779  Q 1172 2650 1078 2428  Q 984 2206 984 1816  L 984 0  L 422 0  z " transform="scale(0.015625)" />
       <path id="ArialMT-65" d="M 2694 1069  L 3275 997  Q 3138 488 2766 206  Q 2394 -75 1816 -75  Q 1088 -75 661 373  Q 234 822 234 1631  Q 234 2469 665 2931  Q 1097 3394 1784 3394  Q 2450 3394 2872 2941  Q 3294 2488 3294 1666  Q 3294 1616 3291 1516  L 816 1516  Q 847 969 1125 678  Q 1403 388 1819 388  Q 2128 388 2347 550  Q 2566 713 2694 1069  z M 847 1978  L 2700 1978  Q 2663 2397 2488 2606  Q 2219 2931 1791 2931  Q 1403 2931 1139 2672  Q 875 2413 847 1978  z " transform="scale(0.015625)" />
       <path id="ArialMT-72" d="M 416 0  L 416 3319  L 922 3319  L 922 2816  Q 1116 3169 1280 3281  Q 1444 3394 1641 3394  Q 1925 3394 2219 3213  L 2025 2691  Q 1819 2813 1613 2813  Q 1428 2813 1281 2702  Q 1134 2591 1072 2394  Q 978 2094 978 1738  L 978 0  L 416 0  z " transform="scale(0.015625)" />
       <path id="ArialMT-73" d="M 197 991  L 753 1078  Q 800 744 1014 566  Q 1228 388 1613 388  Q 2000 388 2187 545  Q 2375 703 2375 916  Q 2375 1106 2209 1216  Q 2094 1291 1634 1406  Q 1016 1563 777 1677  Q 538 1791 414 1992  Q 291 2194 291 2438  Q 291 2659 392 2848  Q 494 3038 669 3163  Q 800 3259 1026 3326  Q 1253 3394 1513 3394  Q 1903 3394 2198 3281  Q 2494 3169 2634 2976  Q 2775 2784 2828 2463  L 2278 2388  Q 2241 2644 2061 2787  Q 1881 2931 1553 2931  Q 1166 2931 1000 2803  Q 834 2675 834 2503  Q 834 2394 903 2306  Q 972 2216 1119 2156  Q 1203 2125 1616 2013  Q 2213 1853 2448 1751  Q 2684 1650 2818 1456  Q 2953 1263 2953 975  Q 2953 694 2789 445  Q 2625 197 2315 61  Q 2006 -75 1616 -75  Q 969 -75 630 194  Q 291 463 197 991  z " transform="scale(0.015625)" />
      </defs>
      <use xlink:href="#ArialMT-6f" />
      <use xlink:href="#ArialMT-74" x="55.615234" />
      <use xlink:href="#ArialMT-68" x="83.398438" />
      <use xlink:href="#ArialMT-65" x="139.013672" />
      <use xlink:href="#ArialMT-72" x="194.628906" />
      <use xlink:href="#ArialMT-73" x="227.929688" />
     </g>
    </g>
    <g id="patch_4">
     <path d="M 8 43.98125  L 28 43.98125  L 28 36.98125  L 8 36.98125  z " style="fill: #d9e6f5; stroke: #444443; stroke-width: 0.4; stroke-linejoin: miter" />
    </g>
    <g id="text_3">
     
     <g style="fill: #444443" transform="translate(31.5 43.98125) scale(0.1 -0.1)">
      <defs>
       <path id="ArialMT-42" d="M 469 0  L 469 4581  L 2188 4581  Q 2713 4581 3030 4442  Q 3347 4303 3526 4014  Q 3706 3725 3706 3409  Q 3706 3116 3547 2856  Q 3388 2597 3066 2438  Q 3481 2316 3704 2022  Q 3928 1728 3928 1328  Q 3928 1006 3792 729  Q 3656 453 3456 303  Q 3256 153 2954 76  Q 2653 0 2216 0  L 469 0  z M 1075 2656  L 2066 2656  Q 2469 2656 2644 2709  Q 2875 2778 2992 2937  Q 3109 3097 3109 3338  Q 3109 3566 3000 3739  Q 2891 3913 2687 3977  Q 2484 4041 1991 4041  L 1075 4041  L 1075 2656  z M 1075 541  L 2216 541  Q 2509 541 2628 563  Q 2838 600 2978 687  Q 3119 775 3209 942  Q 3300 1109 3300 1328  Q 3300 1584 3169 1773  Q 3038 1963 2805 2039  Q 2572 2116 2134 2116  L 1075 2116  L 1075 541  z " transform="scale(0.015625)" />
       <path id="ArialMT-61" d="M 2588 409  Q 2275 144 1986 34  Q 1697 -75 1366 -75  Q 819 -75 525 192  Q 231 459 231 875  Q 231 1119 342 1320  Q 453 1522 633 1644  Q 813 1766 1038 1828  Q 1203 1872 1538 1913  Q 2219 1994 2541 2106  Q 2544 2222 2544 2253  Q 2544 2597 2384 2738  Q 2169 2928 1744 2928  Q 1347 2928 1158 2789  Q 969 2650 878 2297  L 328 2372  Q 403 2725 575 2942  Q 747 3159 1072 3276  Q 1397 3394 1825 3394  Q 2250 3394 2515 3294  Q 2781 3194 2906 3042  Q 3031 2891 3081 2659  Q 3109 2516 3109 2141  L 3109 1391  Q 3109 606 3145 398  Q 3181 191 3288 0  L 2700 0  Q 2613 175 2588 409  z M 2541 1666  Q 2234 1541 1622 1453  Q 1275 1403 1131 1340  Q 988 1278 909 1158  Q 831 1038 831 891  Q 831 666 1001 516  Q 1172 366 1500 366  Q 1825 366 2078 508  Q 2331 650 2450 897  Q 2541 1088 2541 1459  L 2541 1666  z " transform="scale(0.015625)" />
       <path id="ArialMT-6e" d="M 422 0  L 422 3319  L 928 3319  L 928 2847  Q 1294 3394 1984 3394  Q 2284 3394 2536 3286  Q 2788 3178 2913 3003  Q 3038 2828 3088 2588  Q 3119 2431 3119 2041  L 3119 0  L 2556 0  L 2556 2019  Q 2556 2363 2490 2533  Q 2425 2703 2258 2804  Q 2091 2906 1866 2906  Q 1506 2906 1245 2678  Q 984 2450 984 1813  L 984 0  L 422 0  z " transform="scale(0.015625)" />
      </defs>
      <use xlink:href="#ArialMT-42" />
      <use xlink:href="#ArialMT-61" x="66.699219" />
      <use xlink:href="#ArialMT-73" x="122.314453" />
      <use xlink:href="#ArialMT-73" x="172.314453" />
      <use xlink:href="#ArialMT-61" x="222.314453" />
      <use xlink:href="#ArialMT-6e" x="277.929688" />
      <use xlink:href="#ArialMT-74" x="333.544922" />
     </g>
    </g>
    <g id="patch_5">
     <path d="M 8 58.126563  L 28 58.126563  L 28 51.126563  L 8 51.126563  z " style="fill: #a1dab4; stroke: #444443; stroke-width: 0.4; stroke-linejoin: miter" />
    </g>
    <g id="text_4">
     
     <g style="fill: #444443" transform="translate(31.5 58.126563) scale(0.1 -0.1)">
      <defs>
       <path id="ArialMT-54" d="M 1659 0  L 1659 4041  L 150 4041  L 150 4581  L 3781 4581  L 3781 4041  L 2266 4041  L 2266 0  L 1659 0  z " transform="scale(0.015625)" />
       <path id="ArialMT-75" d="M 2597 0  L 2597 488  Q 2209 -75 1544 -75  Q 1250 -75 995 37  Q 741 150 617 320  Q 494 491 444 738  Q 409 903 409 1263  L 409 3319  L 972 3319  L 972 1478  Q 972 1038 1006 884  Q 1059 663 1231 536  Q 1403 409 1656 409  Q 1909 409 2131 539  Q 2353 669 2445 892  Q 2538 1116 2538 1541  L 2538 3319  L 3100 3319  L 3100 0  L 2597 0  z " transform="scale(0.015625)" />
       <path id="ArialMT-6b" d="M 425 0  L 425 4581  L 988 4581  L 988 1969  L 2319 3319  L 3047 3319  L 1778 2088  L 3175 0  L 2481 0  L 1384 1697  L 988 1316  L 988 0  L 425 0  z " transform="scale(0.015625)" />
       <path id="ArialMT-79" d="M 397 -1278  L 334 -750  Q 519 -800 656 -800  Q 844 -800 956 -737  Q 1069 -675 1141 -563  Q 1194 -478 1313 -144  Q 1328 -97 1363 -6  L 103 3319  L 709 3319  L 1400 1397  Q 1534 1031 1641 628  Q 1738 1016 1872 1384  L 2581 3319  L 3144 3319  L 1881 -56  Q 1678 -603 1566 -809  Q 1416 -1088 1222 -1217  Q 1028 -1347 759 -1347  Q 597 -1347 397 -1278  z " transform="scale(0.015625)" />
      </defs>
      <use xlink:href="#ArialMT-54" />
      <use xlink:href="#ArialMT-75" x="57.333984" />
      <use xlink:href="#ArialMT-72" x="112.949219" />
      <use xlink:href="#ArialMT-6b" x="146.25" />
      <use xlink:href="#ArialMT-79" x="196.25" />
     </g>
    </g>
    <g id="patch_6">
     <path d="M 8 72.389062  L 28 72.389062  L 28 65.389062  L 8 65.389062  z " style="fill: #41b6c4; stroke: #444443; stroke-width: 0.4; stroke-linejoin: miter" />
    </g>
    <g id="text_5">
     
     <g style="fill: #444443" transform="translate(31.5 72.389062) scale(0.1 -0.1)">
      <defs>
       <path id="ArialMT-4d" d="M 475 0  L 475 4581  L 1388 4581  L 2472 1338  Q 2622 884 2691 659  Q 2769 909 2934 1394  L 4031 4581  L 4847 4581  L 4847 0  L 4263 0  L 4263 3834  L 2931 0  L 2384 0  L 1059 3900  L 1059 0  L 475 0  z " transform="scale(0.015625)" />
      </defs>
      <use xlink:href="#ArialMT-4d" />
      <use xlink:href="#ArialMT-61" x="83.300781" />
      <use xlink:href="#ArialMT-79" x="138.916016" />
      <use xlink:href="#ArialMT-61" x="188.916016" />
      <use xlink:href="#ArialMT-72" x="244.53125" />
     </g>
    </g>
    <g id="patch_7">
     <path d="M 8 86.651563  L 28 86.651563  L 28 79.651563  L 8 79.651563  z " style="fill: #fee090; stroke: #444443; stroke-width: 0.4; stroke-linejoin: miter" />
    </g>
    <g id="text_6">
     
     <g style="fill: #444443" transform="translate(31.5 86.651563) scale(0.1 -0.1)">
      <defs>
       <path id="ArialMT-45" d="M 506 0  L 506 4581  L 3819 4581  L 3819 4041  L 1113 4041  L 1113 2638  L 3647 2638  L 3647 2100  L 1113 2100  L 1113 541  L 3925 541  L 3925 0  L 506 0  z " transform="scale(0.015625)" />
      </defs>
      <use xlink:href="#ArialMT-45" />
      <use xlink:href="#ArialMT-72" x="66.699219" />
      <use xlink:href="#ArialMT-65" x="100" />
      <use xlink:href="#ArialMT-6e" x="155.615234" />
      <use xlink:href="#ArialMT-79" x="211.230469" />
     </g>
    </g>
   </g>
  </g>
 </g>
</svg></g>
</g>
</svg>